{
	"asset":{
		"generator":"Khronos glTF Blender I/O v4.0.44",
		"version":"2.0"
	},
	"scene":0,
	"scenes":[
		{
			"name":"Scene",
			"nodes":[
				0
			]
		}
	],
	"nodes":[
		{
			"mesh":0,
			"name":"Tree 1",
			"scale":[
				0.009999999776482582,
				0.009999999776482582,
				0.009999999776482582
			]
		}
	],
	"materials":[
		{
			"doubleSided":true,
			"name":"Trunk_01",
			"normalTexture":{
				"index":0
			},
			"pbrMetallicRoughness":{
				"baseColorTexture":{
					"index":1
				},
				"metallicFactor":0,
				"metallicRoughnessTexture":{
					"index":2
				}
			}
		},
		{
			"alphaCutoff":0.18867924809455872,
			"alphaMode":"MASK",
			"doubleSided":true,
			"name":"Leaf_01",
			"normalTexture":{
				"index":3
			},
			"pbrMetallicRoughness":{
				"baseColorTexture":{
					"index":4
				},
				"metallicFactor":0,
				"metallicRoughnessTexture":{
					"index":5
				}
			}
		}
	],
	"meshes":[
		{
			"name":"Tree 1",
			"primitives":[
				{
					"attributes":{
						"COLOR_0":0,
						"POSITION":1,
						"NORMAL":2,
						"TEXCOORD_0":3
					},
					"indices":4,
					"material":0
				},
				{
					"attributes":{
						"COLOR_0":5,
						"POSITION":6,
						"NORMAL":7,
						"TEXCOORD_0":8
					},
					"indices":9,
					"material":1
				}
			]
		}
	],
	"textures":[
		{
			"sampler":0,
			"source":0
		},
		{
			"sampler":0,
			"source":1
		},
		{
			"sampler":0,
			"source":2
		},
		{
			"sampler":0,
			"source":3
		},
		{
			"sampler":0,
			"source":4
		},
		{
			"sampler":0,
			"source":5
		}
	],
	"images":[
		{
			"mimeType":"image/jpeg",
			"name":"MT_PM_V60_Acer_buergerianum_01_Trunk_01_normal",
			"uri":"MT_PM_V60_Acer_buergerianum_01_Trunk_01_normal.jpg"
		},
		{
			"mimeType":"image/jpeg",
			"name":"MT_PM_V60_Acer_buergerianum_01_Trunk_01_albedo",
			"uri":"MT_PM_V60_Acer_buergerianum_01_Trunk_01_albedo.jpg"
		},
		{
			"mimeType":"image/png",
			"name":"MT_PM_V60_Acer_buergerianum_01_Trunk_01_glossiness",
			"uri":"MT_PM_V60_Acer_buergerianum_01_Trunk_01_glossiness.png"
		},
		{
			"mimeType":"image/jpeg",
			"name":"MT_PM_V60_Acer_buergerianum_01_Leaf_01_normal",
			"uri":"MT_PM_V60_Acer_buergerianum_01_Leaf_01_normal.jpg"
		},
		{
			"mimeType":"image/jpeg",
			"name":"MT_PM_V60_Acer_buergerianum_01_Leaf_01_albedo",
			"uri":"MT_PM_V60_Acer_buergerianum_01_Leaf_01_albedo.jpg"
		},
		{
			"mimeType":"image/png",
			"name":"MT_PM_V60_Acer_buergerianum_01_Leaf_01_glossiness",
			"uri":"MT_PM_V60_Acer_buergerianum_01_Leaf_01_glossiness.png"
		}
	],
	"accessors":[
		{
			"bufferView":0,
			"componentType":5123,
			"count":19761,
			"normalized":true,
			"type":"VEC4"
		},
		{
			"bufferView":1,
			"componentType":5126,
			"count":19761,
			"max":[
				140.33633422851562,
				945.855224609375,
				161.7848663330078
			],
			"min":[
				-207.28089904785156,
				0,
				-189.53695678710938
			],
			"type":"VEC3"
		},
		{
			"bufferView":2,
			"componentType":5126,
			"count":19761,
			"type":"VEC3"
		},
		{
			"bufferView":3,
			"componentType":5126,
			"count":19761,
			"type":"VEC2"
		},
		{
			"bufferView":4,
			"componentType":5123,
			"count":99228,
			"type":"SCALAR"
		},
		{
			"bufferView":5,
			"componentType":5123,
			"count":217486,
			"normalized":true,
			"type":"VEC4"
		},
		{
			"bufferView":6,
			"componentType":5126,
			"count":217486,
			"max":[
				234.84100341796875,
				1031.8660888671875,
				255.3044891357422
			],
			"min":[
				-305.8044128417969,
				171.5037841796875,
				-286.29876708984375
			],
			"type":"VEC3"
		},
		{
			"bufferView":7,
			"componentType":5126,
			"count":217486,
			"type":"VEC3"
		},
		{
			"bufferView":8,
			"componentType":5126,
			"count":217486,
			"type":"VEC2"
		},
		{
			"bufferView":9,
			"componentType":5125,
			"count":466440,
			"type":"SCALAR"
		}
	],
	"bufferViews":[
		{
			"buffer":0,
			"byteLength":158088,
			"byteOffset":0,
			"target":34962
		},
		{
			"buffer":0,
			"byteLength":237132,
			"byteOffset":158088,
			"target":34962
		},
		{
			"buffer":0,
			"byteLength":237132,
			"byteOffset":395220,
			"target":34962
		},
		{
			"buffer":0,
			"byteLength":158088,
			"byteOffset":632352,
			"target":34962
		},
		{
			"buffer":0,
			"byteLength":198456,
			"byteOffset":790440,
			"target":34963
		},
		{
			"buffer":0,
			"byteLength":1739888,
			"byteOffset":988896,
			"target":34962
		},
		{
			"buffer":0,
			"byteLength":2609832,
			"byteOffset":2728784,
			"target":34962
		},
		{
			"buffer":0,
			"byteLength":2609832,
			"byteOffset":5338616,
			"target":34962
		},
		{
			"buffer":0,
			"byteLength":1739888,
			"byteOffset":7948448,
			"target":34962
		},
		{
			"buffer":0,
			"byteLength":1865760,
			"byteOffset":9688336,
			"target":34963
		}
	],
	"samplers":[
		{
			"magFilter":9729,
			"minFilter":9987
		}
	],
	"buffers":[
		{
			"byteLength":11554096,
			"uri":"Tree.bin"
		}
	]
}
